STARTFONT 2.1
FONT -FontForge-Helvetica-Bold-R-Normal--48-460-75-75-P-278-ISO10646-1
SIZE 46 75 75
FONTBOUNDINGBOX 118 79 -49 -23
COMMENT "Generated by fontforge, http://fontforge.sourceforge.net"
COMMENT "(c) 1990-2006 Apple Computer Inc. (c) 1981 Linotype AG (c) 1990-91 Type Solutions Inc."
STARTPROPERTIES 39
FOUNDRY "FontForge"
FAMILY_NAME "Helvetica"
WEIGHT_NAME "Bold"
SLANT "R"
SETWIDTH_NAME "Normal"
ADD_STYLE_NAME ""
PIXEL_SIZE 48
POINT_SIZE 460
RESOLUTION_X 75
RESOLUTION_Y 75
SPACING "P"
AVERAGE_WIDTH 278
CHARSET_REGISTRY "ISO10646"
CHARSET_ENCODING "1"
FONTNAME_REGISTRY ""
CHARSET_COLLECTIONS "ISO8859-2 ISO8859-5 ISO8859-7 ISO8859-9 ISO8859-4 ISO10646-1"
FONT_NAME "Helvetica-Bold"
FACE_NAME "Helvetica‭ ‬עבה"
COPYRIGHT "(c) 1990-2006 Apple Computer Inc. (c) 1981 Linotype AG (c) 1990-91 Type Solutions Inc."
FONT_VERSION "10.0d4e1"
FONT_ASCENT 38
FONT_DESCENT 10
UNDERLINE_POSITION -7
UNDERLINE_THICKNESS 3
X_HEIGHT 25
RAW_ASCENT 799
RAW_DESCENT 200
NORM_SPACE 13
RELATIVE_WEIGHT 70
RELATIVE_SETWIDTH 50
SUPERSCRIPT_X 0
SUPERSCRIPT_Y 22
SUPERSCRIPT_SIZE 31
SUBSCRIPT_X 0
SUBSCRIPT_Y 6
SUBSCRIPT_SIZE 31
FIGURE_WIDTH 27
AVG_LOWERCASE_WIDTH 271
AVG_UPPERCASE_WIDTH 355
ENDPROPERTIES
CHARS 11
STARTCHAR zero
ENCODING 48
SWIDTH 556 0
DWIDTH 27 0
BBX 23 35 2 -1
BITMAP
00FE00
07FFC0
0FFFE0
1FFFF0
1FFFF0
3FFFF8
3FC7F8
7F81FC
7F01FC
7F01FC
7E00FC
FE00FE
FE00FE
FE00FE
FE00FE
FE00FE
FE00FE
FE00FE
FE00FE
FE00FE
FE00FE
FE00FE
FE00FE
FE00FE
7F01FC
7F01FC
7F01FC
7F83FC
3FC7F8
3FFFF8
1FFFF0
1FFFF0
0FFFE0
07FFC0
00FE00
ENDCHAR
STARTCHAR one
ENCODING 49
SWIDTH 556 0
DWIDTH 27 0
BBX 15 34 3 0
BITMAP
007E
007E
00FE
00FE
01FE
07FE
FFFE
FFFE
FFFE
FFFE
FFFE
00FE
00FE
00FE
00FE
00FE
00FE
00FE
00FE
00FE
00FE
00FE
00FE
00FE
00FE
00FE
00FE
00FE
00FE
00FE
00FE
00FE
00FE
00FE
ENDCHAR
STARTCHAR two
ENCODING 50
SWIDTH 556 0
DWIDTH 27 0
BBX 23 34 2 0
BITMAP
00FF00
03FFC0
0FFFE0
1FFFF0
1FFFF8
3FFFFC
3FC3FC
3F81FE
7F00FE
7F00FE
7F00FE
7F00FE
0000FE
0001FE
0001FC
0003FC
0007FC
000FF8
001FF0
003FE0
00FFC0
01FF80
03FE00
07FC00
0FF800
1FE000
1FC000
3FC000
7FFFFE
7FFFFE
7FFFFE
FFFFFE
FFFFFE
FFFFFE
ENDCHAR
STARTCHAR three
ENCODING 51
SWIDTH 556 0
DWIDTH 27 0
BBX 23 35 1 -1
BITMAP
00FE00
03FFC0
0FFFE0
1FFFF0
1FFFF8
3FFFF8
3FC7FC
7F83FC
7F01FC
7F01FC
7F01FC
0001FC
0003F8
0007F8
003FF0
003FE0
003FE0
003FF0
003FF8
003FFC
0003FC
0001FE
0000FE
0000FE
FE00FE
FE00FE
FE00FE
FF01FC
7F83FC
7FFFFC
3FFFF8
3FFFF0
1FFFE0
07FFC0
01FF00
ENDCHAR
STARTCHAR four
ENCODING 52
SWIDTH 556 0
DWIDTH 27 0
BBX 24 34 1 0
BITMAP
000FF0
001FF0
001FF0
003FF0
007FF0
007FF0
00FFF0
00FFF0
01FFF0
03FFF0
03FFF0
07F7F0
07F7F0
0FE7F0
1FC7F0
1FC7F0
3F87F0
3F87F0
7F07F0
7E07F0
FE07F0
FFFFFF
FFFFFF
FFFFFF
FFFFFF
FFFFFF
FFFFFF
0007F0
0007F0
0007F0
0007F0
0007F0
0007F0
0007F0
ENDCHAR
STARTCHAR five
ENCODING 53
SWIDTH 556 0
DWIDTH 27 0
BBX 23 35 1 -1
BITMAP
1FFFFC
1FFFFC
1FFFFC
1FFFFC
1FFFFC
3FFFFC
3F0000
3F0000
3F0000
3F0000
3F0000
7F3F00
7EFFC0
7FFFF0
7FFFF8
7FFFF8
7FFFFC
7F83FC
FF01FE
0001FE
0000FE
0000FE
0000FE
0000FE
0000FE
FE00FE
FE01FC
FF01FC
7F87FC
7FFFF8
3FFFF8
3FFFF0
0FFFE0
07FF80
01FE00
ENDCHAR
STARTCHAR six
ENCODING 54
SWIDTH 556 0
DWIDTH 27 0
BBX 23 35 2 -1
BITMAP
00FE00
03FFC0
07FFE0
0FFFF0
1FFFF8
1FFFF8
3FC3FC
3F81FC
7F01FC
7F0000
7F0000
FE0000
FE3F00
FE7FC0
FEFFF0
FFFFF8
FFFFF8
FFFFFC
FF87FC
FF01FE
FE01FE
FE00FE
FE00FE
FE00FE
7E00FE
7E00FE
7F01FE
3F01FC
3FC3FC
1FFFF8
1FFFF8
0FFFF0
07FFE0
03FFC0
00FE00
ENDCHAR
STARTCHAR seven
ENCODING 55
SWIDTH 556 0
DWIDTH 27 0
BBX 24 34 1 0
BITMAP
FFFFFF
FFFFFF
FFFFFF
FFFFFF
FFFFFF
FFFFFF
00007E
0000FC
0001F8
0003F8
0003F0
0007E0
000FE0
000FC0
001FC0
003F80
003F80
007F00
007F00
007E00
00FE00
00FE00
01FC00
01FC00
01FC00
03F800
03F800
03F800
03F800
07F000
07F000
07F000
07F000
07F000
ENDCHAR
STARTCHAR eight
ENCODING 56
SWIDTH 556 0
DWIDTH 27 0
BBX 24 35 1 -1
BITMAP
00FF00
07FFE0
0FFFF0
1FFFF8
3FFFFC
3FFFFC
7FC3FE
7F81FE
7F00FE
7F00FE
7F00FE
7F00FE
3F81FC
3FC3FC
1FFFF8
0FFFF0
07FFE0
1FFFF8
3FFFFC
7FC3FC
7F00FE
FE00FE
FE007F
FE007F
FE007F
FE007F
FE00FF
FF00FF
7FC3FE
7FFFFE
3FFFFC
3FFFF8
1FFFF0
07FFE0
01FF00
ENDCHAR
STARTCHAR nine
ENCODING 57
SWIDTH 556 0
DWIDTH 27 0
BBX 24 35 1 -1
BITMAP
00FE00
03FFC0
0FFFE0
1FFFF0
3FFFF8
3FFFFC
7FC3FC
7F01FE
FF00FE
FE007E
FE007E
FE007F
FE007F
FE007F
FE007F
FF00FF
FF00FF
7FC3FF
7FFFFF
3FFFFF
1FFFFF
0FFF7F
07FE7F
01F87E
00007E
0000FE
7F00FE
7F81FC
7FC3FC
3FFFF8
3FFFF8
1FFFF0
0FFFE0
03FFC0
00FE00
ENDCHAR
STARTCHAR colon
ENCODING 58
SWIDTH 333 0
DWIDTH 16 0
BBX 7 25 6 0
BITMAP
FE
FE
FE
FE
FE
FE
FE
00
00
00
00
00
00
00
00
00
00
00
FE
FE
FE
FE
FE
FE
FE
ENDCHAR
ENDFONT
