STARTFONT 2.1
FONT -FontForge-Helvetica-Bold-R-Normal--24-240-75-75-P-138-ISO10646-1
SIZE 24 75 75
FONTBOUNDINGBOX 58 40 -24 -12
COMMENT "Generated by fontforge, http://fontforge.sourceforge.net"
COMMENT "(c) 1990-2006 Apple Computer Inc. (c) 1981 Linotype AG (c) 1990-91 Type Solutions Inc."
STARTPROPERTIES 40
FOUNDRY "FontForge"
FAMILY_NAME "Helvetica"
WEIGHT_NAME "Bold"
SLANT "R"
SETWIDTH_NAME "Normal"
ADD_STYLE_NAME ""
PIXEL_SIZE 24
POINT_SIZE 240
RESOLUTION_X 75
RESOLUTION_Y 75
SPACING "P"
AVERAGE_WIDTH 138
CHARSET_REGISTRY "ISO10646"
CHARSET_ENCODING "1"
FONTNAME_REGISTRY ""
CHARSET_COLLECTIONS "ISO8859-2 ISO8859-5 ISO8859-7 ISO8859-9 ISO8859-4 ISO10646-1"
FONT_NAME "Helvetica-Bold"
FACE_NAME "Helvetica‭ ‬עבה"
COPYRIGHT "(c) 1990-2006 Apple Computer Inc. (c) 1981 Linotype AG (c) 1990-91 Type Solutions Inc."
FONT_VERSION "10.0d4e1"
FONT_ASCENT 19
FONT_DESCENT 5
UNDERLINE_POSITION -4
UNDERLINE_THICKNESS 2
X_HEIGHT 13
CAP_HEIGHT 17
RAW_ASCENT 799
RAW_DESCENT 200
NORM_SPACE 7
RELATIVE_WEIGHT 70
RELATIVE_SETWIDTH 50
SUPERSCRIPT_X 0
SUPERSCRIPT_Y 11
SUPERSCRIPT_SIZE 15
SUBSCRIPT_X 0
SUBSCRIPT_Y 3
SUBSCRIPT_SIZE 15
FIGURE_WIDTH 13
AVG_LOWERCASE_WIDTH 137
AVG_UPPERCASE_WIDTH 180
ENDPROPERTIES
CHARS 95
STARTCHAR space
ENCODING 32
SWIDTH 277 0
DWIDTH 7 0
BBX 1 1 0 0
BITMAP
00
ENDCHAR
STARTCHAR exclam
ENCODING 33
SWIDTH 333 0
DWIDTH 7 0
BBX 3 18 3 0
BITMAP
E0
E0
E0
E0
E0
E0
E0
E0
E0
E0
E0
E0
E0
E0
00
E0
E0
E0
ENDCHAR
STARTCHAR quotedbl
ENCODING 34
SWIDTH 474 0
DWIDTH 11 0
BBX 8 7 2 10
BITMAP
EF
E6
E6
E6
E6
E6
E6
ENDCHAR
STARTCHAR numbersign
ENCODING 35
SWIDTH 556 0
DWIDTH 13 0
BBX 13 18 0 0
BITMAP
0630
0660
0660
0660
0C60
0CC0
3FF8
3FF8
58C0
1980
1980
FFF0
FFE0
3300
3300
3300
6300
6600
ENDCHAR
STARTCHAR dollar
ENCODING 36
SWIDTH 556 0
DWIDTH 13 0
BBX 11 22 1 -2
BITMAP
0400
0400
1F00
7FC0
7FC0
E5E0
E4E0
E400
F400
7E00
3F80
0FC0
07E0
04E0
E4E0
E4E0
F5E0
7FC0
7FC0
1F00
0400
0400
ENDCHAR
STARTCHAR percent
ENCODING 37
SWIDTH 889 0
DWIDTH 21 0
BBX 20 18 0 0
BITMAP
1E0600
7F8C00
7F8800
F3D800
E1D800
E1D000
F3F000
7FA000
7FE780
1E5FE0
00DFE0
00FCF0
01B870
01B870
013CF0
031FE0
021FE0
060780
ENDCHAR
STARTCHAR ampersand
ENCODING 38
SWIDTH 722 0
DWIDTH 18 0
BBX 16 18 1 0
BITMAP
0F80
1FC0
3FE0
38E0
38E0
3DE0
1FC0
1F80
3F0E
7F8E
F3DE
E1FC
E0FC
E078
F1F8
7FFC
3FDE
1F0F
ENDCHAR
STARTCHAR quotesingle
ENCODING 39
SWIDTH 237 0
DWIDTH 5 0
BBX 2 7 2 11
BITMAP
C0
C0
C0
C0
C0
C0
C0
ENDCHAR
STARTCHAR parenleft
ENCODING 40
SWIDTH 333 0
DWIDTH 8 0
BBX 6 23 1 -5
BITMAP
1C
18
38
30
70
70
70
E0
E0
E0
E0
E0
E0
E0
E0
E0
70
70
70
38
38
18
1C
ENDCHAR
STARTCHAR parenright
ENCODING 41
SWIDTH 333 0
DWIDTH 7 0
BBX 6 23 0 -5
BITMAP
E0
60
70
30
38
38
18
1C
1C
1C
1C
1C
1C
1C
1C
1C
38
38
38
30
70
60
E0
ENDCHAR
STARTCHAR asterisk
ENCODING 42
SWIDTH 389 0
DWIDTH 10 0
BBX 8 7 1 11
BITMAP
18
18
FF
FF
3C
7E
24
ENDCHAR
STARTCHAR plus
ENCODING 43
SWIDTH 583 0
DWIDTH 14 0
BBX 13 14 1 0
BITMAP
0700
0700
0700
0700
0700
FFF8
FFF8
FFF8
0700
0700
0700
0700
0700
0700
ENDCHAR
STARTCHAR comma
ENCODING 44
SWIDTH 277 0
DWIDTH 6 0
BBX 3 7 1 -4
BITMAP
E0
E0
E0
60
60
C0
80
ENDCHAR
STARTCHAR hyphen
ENCODING 45
SWIDTH 333 0
DWIDTH 8 0
BBX 7 3 1 5
BITMAP
FE
FE
FE
ENDCHAR
STARTCHAR period
ENCODING 46
SWIDTH 277 0
DWIDTH 6 0
BBX 3 3 1 0
BITMAP
E0
E0
E0
ENDCHAR
STARTCHAR slash
ENCODING 47
SWIDTH 277 0
DWIDTH 6 0
BBX 11 18 -2 0
BITMAP
01E0
01C0
01C0
0380
0380
0780
0700
0700
0E00
0E00
1E00
1C00
1C00
3800
3800
7800
7000
F000
ENDCHAR
STARTCHAR zero
ENCODING 48
SWIDTH 556 0
DWIDTH 13 0
BBX 12 18 0 0
BITMAP
1F80
3FC0
7FE0
70E0
F0E0
E070
E070
E070
E070
E070
E070
E070
E070
F0E0
70E0
7FE0
3FC0
1F80
ENDCHAR
STARTCHAR one
ENCODING 49
SWIDTH 556 0
DWIDTH 13 0
BBX 7 18 2 0
BITMAP
06
0E
1E
FE
FE
0E
0E
0E
0E
0E
0E
0E
0E
0E
0E
0E
0E
0E
ENDCHAR
STARTCHAR two
ENCODING 50
SWIDTH 556 0
DWIDTH 13 0
BBX 12 18 0 0
BITMAP
1F80
3FC0
7FE0
F0F0
E070
E070
0070
00F0
01E0
03E0
0F80
1F00
3E00
7C00
7000
FFF0
FFF0
FFF0
ENDCHAR
STARTCHAR three
ENCODING 51
SWIDTH 556 0
DWIDTH 13 0
BBX 12 18 0 0
BITMAP
1F00
7FC0
7FE0
F1E0
E0E0
00E0
01E0
0FC0
0FE0
0FE0
00F0
0070
E070
E070
F0F0
7FE0
3FC0
1F80
ENDCHAR
STARTCHAR four
ENCODING 52
SWIDTH 556 0
DWIDTH 13 0
BBX 12 18 1 0
BITMAP
03C0
03C0
07C0
0FC0
0FC0
1FC0
1DC0
39C0
79C0
71C0
E1C0
FFF0
FFF0
FFF0
01C0
01C0
01C0
01C0
ENDCHAR
STARTCHAR five
ENCODING 53
SWIDTH 556 0
DWIDTH 13 0
BBX 12 18 1 0
BITMAP
7FE0
7FE0
7FE0
7000
7000
F000
EF80
FFC0
FFE0
F0F0
0070
0070
0070
E070
F0E0
7FE0
3FC0
1F80
ENDCHAR
STARTCHAR six
ENCODING 54
SWIDTH 556 0
DWIDTH 13 0
BBX 12 18 0 0
BITMAP
0F80
1FC0
3FE0
78F0
7070
E000
EF80
FFC0
FFE0
F0F0
E070
E070
E070
6070
70E0
7FE0
3FC0
0F80
ENDCHAR
STARTCHAR seven
ENCODING 55
SWIDTH 556 0
DWIDTH 13 0
BBX 12 18 1 0
BITMAP
FFF0
FFF0
FFF0
00E0
01C0
03C0
0380
0700
0F00
0E00
0E00
1C00
1C00
1C00
3800
3800
3800
3800
ENDCHAR
STARTCHAR eight
ENCODING 56
SWIDTH 556 0
DWIDTH 13 0
BBX 12 18 0 0
BITMAP
1F80
7FE0
7FE0
F0F0
E070
E070
F0F0
7FE0
3FC0
7FE0
F0F0
E070
E070
E070
F0F0
7FE0
3FC0
1F80
ENDCHAR
STARTCHAR nine
ENCODING 57
SWIDTH 556 0
DWIDTH 13 0
BBX 12 18 0 0
BITMAP
1F00
3FC0
7FE0
F0E0
E060
E070
E070
E070
F0F0
7FF0
3FF0
1F70
0070
E0E0
F1E0
7FC0
3FC0
1F00
ENDCHAR
STARTCHAR colon
ENCODING 58
SWIDTH 333 0
DWIDTH 7 0
BBX 3 12 3 0
BITMAP
E0
E0
E0
00
00
00
00
00
00
E0
E0
E0
ENDCHAR
STARTCHAR semicolon
ENCODING 59
SWIDTH 333 0
DWIDTH 7 0
BBX 3 16 3 -4
BITMAP
E0
E0
E0
00
00
00
00
00
00
E0
E0
E0
60
60
C0
80
ENDCHAR
STARTCHAR less
ENCODING 60
SWIDTH 583 0
DWIDTH 14 0
BBX 14 15 0 0
BITMAP
0004
001C
007C
03FC
0FF0
7F80
FE00
F000
FE00
7F80
0FF0
03FC
007C
001C
0004
ENDCHAR
STARTCHAR equal
ENCODING 61
SWIDTH 583 0
DWIDTH 14 0
BBX 13 8 1 2
BITMAP
FFF8
FFF8
FFF8
0000
0000
FFF8
FFF8
FFF8
ENDCHAR
STARTCHAR greater
ENCODING 62
SWIDTH 583 0
DWIDTH 14 0
BBX 14 15 0 0
BITMAP
8000
E000
F800
FF00
3FC0
07F8
01FC
003C
01FC
07F8
3FC0
FF00
F800
E000
8000
ENDCHAR
STARTCHAR question
ENCODING 63
SWIDTH 610 0
DWIDTH 15 0
BBX 12 18 2 0
BITMAP
1F80
3FC0
7FE0
F0F0
E070
E070
0070
00E0
03E0
0780
0F00
0E00
0E00
0000
0000
0E00
0E00
0E00
ENDCHAR
STARTCHAR at
ENCODING 64
SWIDTH 975 0
DWIDTH 23 0
BBX 19 18 2 0
BITMAP
01FC00
0FFF00
1E0780
3801C0
70E6C0
61F660
E3CC60
C78C60
C70C60
C71860
C718C0
C739C0
63FF80
73CF00
380080
1E0780
0FFF00
03F800
ENDCHAR
STARTCHAR A
ENCODING 65
SWIDTH 722 0
DWIDTH 18 0
BBX 15 18 2 0
BITMAP
0380
0380
07C0
07C0
06C0
0EE0
0EE0
0C60
1C70
1C70
1C70
3FF8
3FF8
3FF8
701C
701C
701C
E00E
ENDCHAR
STARTCHAR B
ENCODING 66
SWIDTH 722 0
DWIDTH 17 0
BBX 14 18 2 0
BITMAP
FFE0
FFF0
FFF8
E078
E038
E038
E078
FFF0
FFF0
FFF8
E03C
E01C
E01C
E01C
E03C
FFF8
FFF0
FFE0
ENDCHAR
STARTCHAR C
ENCODING 67
SWIDTH 722 0
DWIDTH 17 0
BBX 15 18 1 0
BITMAP
07E0
1FF8
3FFC
7C3C
701E
F00E
E000
E000
E000
E000
E000
E000
F00E
701E
7C3C
3FFC
1FF0
07E0
ENDCHAR
STARTCHAR D
ENCODING 68
SWIDTH 722 0
DWIDTH 18 0
BBX 15 18 2 0
BITMAP
FFE0
FFF0
FFF8
E03C
E01C
E01E
E00E
E00E
E00E
E00E
E00E
E00E
E01C
E01C
E07C
FFF8
FFF0
FFC0
ENDCHAR
STARTCHAR E
ENCODING 69
SWIDTH 666 0
DWIDTH 16 0
BBX 14 17 2 0
BITMAP
FFF8
FFF8
FFF8
F000
F000
F000
FFF0
FFF0
FFF0
F000
F000
F000
F000
F000
FFFC
FFFC
FFFC
ENDCHAR
STARTCHAR F
ENCODING 70
SWIDTH 610 0
DWIDTH 15 0
BBX 12 18 2 0
BITMAP
FFF0
FFF0
FFF0
E000
E000
E000
E000
FFE0
FFE0
FFE0
E000
E000
E000
E000
E000
E000
E000
E000
ENDCHAR
STARTCHAR G
ENCODING 71
SWIDTH 777 0
DWIDTH 19 0
BBX 16 18 1 0
BITMAP
07F0
1FFC
3FFE
3C1E
780F
7007
E000
E000
E000
E07F
E07F
E07F
7007
7007
7C1F
3FFF
1FFB
07E3
ENDCHAR
STARTCHAR H
ENCODING 72
SWIDTH 722 0
DWIDTH 18 0
BBX 14 18 2 0
BITMAP
E01C
E01C
E01C
E01C
E01C
E01C
E01C
FFFC
FFFC
FFFC
E01C
E01C
E01C
E01C
E01C
E01C
E01C
E01C
ENDCHAR
STARTCHAR I
ENCODING 73
SWIDTH 277 0
DWIDTH 7 0
BBX 3 18 2 0
BITMAP
E0
E0
E0
E0
E0
E0
E0
E0
E0
E0
E0
E0
E0
E0
E0
E0
E0
E0
ENDCHAR
STARTCHAR J
ENCODING 74
SWIDTH 556 0
DWIDTH 13 0
BBX 11 18 0 0
BITMAP
00E0
00E0
00E0
00E0
00E0
00E0
00E0
00E0
00E0
00E0
00E0
E0E0
E0E0
E0E0
F1E0
7FC0
7FC0
1F00
ENDCHAR
STARTCHAR K
ENCODING 75
SWIDTH 722 0
DWIDTH 17 0
BBX 15 18 2 0
BITMAP
E03C
E078
E0F0
E1E0
E3C0
E780
EF00
FE00
FF00
FF80
F380
E1C0
E1E0
E0F0
E070
E078
E03C
E01E
ENDCHAR
STARTCHAR L
ENCODING 76
SWIDTH 610 0
DWIDTH 15 0
BBX 12 18 2 0
BITMAP
E000
E000
E000
E000
E000
E000
E000
E000
E000
E000
E000
E000
E000
E000
E000
FFF0
FFF0
FFF0
ENDCHAR
STARTCHAR M
ENCODING 77
SWIDTH 833 0
DWIDTH 21 0
BBX 17 18 2 0
BITMAP
F80F80
F80F80
FC1F80
FC1F80
FC1F80
EC1B80
EE3B80
EE3B80
EE3B80
E63380
E77380
E77380
E77380
E36380
E3E380
E3E380
E3E380
E1C380
ENDCHAR
STARTCHAR N
ENCODING 78
SWIDTH 722 0
DWIDTH 18 0
BBX 14 18 2 0
BITMAP
F01C
F01C
F81C
FC1C
FC1C
FE1C
EE1C
E71C
E71C
E39C
E3DC
E1DC
E1FC
E0FC
E07C
E07C
E03C
E03C
ENDCHAR
STARTCHAR O
ENCODING 79
SWIDTH 777 0
DWIDTH 19 0
BBX 17 18 1 0
BITMAP
07F000
1FFC00
3FFE00
7C1F00
780F00
F00780
E00380
E00380
E00380
E00380
E00380
E00380
F00780
780F00
7C1F00
3FFE00
1FFC00
07F000
ENDCHAR
STARTCHAR P
ENCODING 80
SWIDTH 666 0
DWIDTH 16 0
BBX 13 18 2 0
BITMAP
FFC0
FFF0
FFF0
E078
E038
E038
E038
E078
FFF0
FFF0
FFC0
E000
E000
E000
E000
E000
E000
E000
ENDCHAR
STARTCHAR Q
ENCODING 81
SWIDTH 777 0
DWIDTH 19 0
BBX 17 19 1 -1
BITMAP
07F000
1FFC00
3FFE00
7C1F00
780F00
F00780
E00380
E00380
E00380
E00380
E00380
E02380
F07780
707F00
7C3F00
3FFF00
1FFF80
07F700
000200
ENDCHAR
STARTCHAR R
ENCODING 82
SWIDTH 722 0
DWIDTH 17 0
BBX 14 18 2 0
BITMAP
FFE0
FFF8
FFF8
E03C
E01C
E01C
E01C
E03C
FFF8
FFF0
FFF8
E07C
E03C
E03C
E03C
E03C
E03C
E01C
ENDCHAR
STARTCHAR S
ENCODING 83
SWIDTH 666 0
DWIDTH 16 0
BBX 14 18 1 0
BITMAP
0F80
3FE0
7FF0
F078
E038
E038
F000
FE00
7FE0
1FF8
01FC
003C
E01C
E01C
783C
7FF8
3FF0
0FC0
ENDCHAR
STARTCHAR T
ENCODING 84
SWIDTH 610 0
DWIDTH 14 0
BBX 13 18 1 0
BITMAP
FFF8
FFF8
FFF8
0700
0700
0700
0700
0700
0700
0700
0700
0700
0700
0700
0700
0700
0700
0700
ENDCHAR
STARTCHAR U
ENCODING 85
SWIDTH 722 0
DWIDTH 18 0
BBX 14 18 2 0
BITMAP
E01C
E01C
E01C
E01C
E01C
E01C
E01C
E01C
E01C
E01C
E01C
E01C
E01C
F03C
7878
7FF8
3FF0
0FC0
ENDCHAR
STARTCHAR V
ENCODING 86
SWIDTH 666 0
DWIDTH 18 0
BBX 15 18 2 0
BITMAP
F01E
701C
701C
783C
3838
3838
3838
1C70
1C70
1C70
1EF0
0EE0
0EE0
0EE0
07C0
07C0
07C0
0780
ENDCHAR
STARTCHAR W
ENCODING 87
SWIDTH 943 0
DWIDTH 23 0
BBX 21 18 1 0
BITMAP
F07078
70F070
70F870
70F870
38D8E0
38D8E0
38D8E0
39DCE0
19DCC0
1DDDC0
1D8DC0
1D8DC0
0D8D80
0F8F80
0F8F80
0F0F80
070700
070700
ENDCHAR
STARTCHAR X
ENCODING 88
SWIDTH 666 0
DWIDTH 17 0
BBX 16 18 1 0
BITMAP
F00F
781E
381C
1C38
1C38
0E70
0E60
07E0
03C0
07E0
07E0
0E70
0E70
1C38
1C38
381C
781E
F00F
ENDCHAR
STARTCHAR Y
ENCODING 89
SWIDTH 666 0
DWIDTH 16 0
BBX 13 18 2 0
BITMAP
E038
7070
7070
38E0
38E0
1DC0
1DC0
0F80
0F80
0700
0700
0700
0700
0700
0700
0700
0700
0700
ENDCHAR
STARTCHAR Z
ENCODING 90
SWIDTH 610 0
DWIDTH 14 0
BBX 13 18 0 0
BITMAP
FFF8
FFF8
FFF8
0070
00F0
01E0
01C0
0380
0780
0F00
0E00
1C00
3800
7800
F000
FFF8
FFF8
FFF8
ENDCHAR
STARTCHAR bracketleft
ENCODING 91
SWIDTH 333 0
DWIDTH 8 0
BBX 6 23 1 -5
BITMAP
FC
FC
FC
E0
E0
E0
E0
E0
E0
E0
E0
E0
E0
E0
E0
E0
E0
E0
E0
E0
FC
FC
FC
ENDCHAR
STARTCHAR backslash
ENCODING 92
SWIDTH 277 0
DWIDTH 6 0
BBX 11 18 -2 0
BITMAP
F000
7000
7000
3800
3800
3C00
1C00
1C00
0E00
0E00
0F00
0700
0700
0380
0380
03C0
01C0
01E0
ENDCHAR
STARTCHAR bracketright
ENCODING 93
SWIDTH 333 0
DWIDTH 8 0
BBX 6 23 1 -5
BITMAP
FC
FC
FC
1C
1C
1C
1C
1C
1C
1C
1C
1C
1C
1C
1C
1C
1C
1C
1C
1C
FC
FC
FC
ENDCHAR
STARTCHAR asciicircum
ENCODING 94
SWIDTH 583 0
DWIDTH 16 0
BBX 13 10 2 8
BITMAP
0700
0700
0F80
0F80
1DC0
1DC0
38E0
38E0
7070
F078
ENDCHAR
STARTCHAR underscore
ENCODING 95
SWIDTH 556 0
DWIDTH 13 0
BBX 13 1 0 -3
BITMAP
FFF8
ENDCHAR
STARTCHAR grave
ENCODING 96
SWIDTH 333 0
DWIDTH 8 0
BBX 6 3 0 15
BITMAP
F0
38
1C
ENDCHAR
STARTCHAR a
ENCODING 97
SWIDTH 556 0
DWIDTH 13 0
BBX 12 14 1 0
BITMAP
1F00
7FC0
7FE0
F0E0
E0E0
01E0
3FE0
7EE0
E0E0
E0E0
E1E0
FFE0
7EE0
3CF0
ENDCHAR
STARTCHAR b
ENCODING 98
SWIDTH 610 0
DWIDTH 15 0
BBX 12 18 2 0
BITMAP
E000
E000
E000
E000
E780
FFC0
FFE0
F0E0
F0F0
E070
E070
E070
E070
F0F0
F0E0
FFE0
FFC0
EF80
ENDCHAR
STARTCHAR c
ENCODING 99
SWIDTH 556 0
DWIDTH 14 0
BBX 12 14 1 0
BITMAP
0F80
3FE0
7FE0
70F0
E070
E000
E000
E000
E000
E070
70F0
7FE0
3FC0
1F80
ENDCHAR
STARTCHAR d
ENCODING 100
SWIDTH 610 0
DWIDTH 15 0
BBX 12 18 1 0
BITMAP
0070
0070
0070
0070
1E70
3FF0
7FF0
70F0
F0F0
E070
E070
E070
E070
E0F0
70F0
7FF0
3FF0
1E70
ENDCHAR
STARTCHAR e
ENCODING 101
SWIDTH 556 0
DWIDTH 14 0
BBX 12 14 1 0
BITMAP
0F00
3FC0
7FE0
70E0
E070
E070
FFF0
FFF0
E000
E000
70F0
7FE0
3FE0
0F80
ENDCHAR
STARTCHAR f
ENCODING 102
SWIDTH 333 0
DWIDTH 8 0
BBX 7 18 1 0
BITMAP
1E
3E
3E
38
FE
FE
FE
38
38
38
38
38
38
38
38
38
38
38
ENDCHAR
STARTCHAR g
ENCODING 103
SWIDTH 610 0
DWIDTH 15 0
BBX 12 19 1 -5
BITMAP
1E70
3FF0
7FF0
70F0
F0F0
E070
E070
E070
E070
F0F0
70F0
7FF0
3FF0
1E70
0070
E0F0
FFE0
7FE0
1F80
ENDCHAR
STARTCHAR h
ENCODING 104
SWIDTH 610 0
DWIDTH 16 0
BBX 12 18 2 0
BITMAP
E000
E000
E000
E000
E7C0
FFE0
FFF0
F0F0
E070
E070
E070
E070
E070
E070
E070
E070
E070
E070
ENDCHAR
STARTCHAR i
ENCODING 105
SWIDTH 277 0
DWIDTH 7 0
BBX 3 18 2 0
BITMAP
E0
E0
E0
00
E0
E0
E0
E0
E0
E0
E0
E0
E0
E0
E0
E0
E0
E0
ENDCHAR
STARTCHAR j
ENCODING 106
SWIDTH 277 0
DWIDTH 7 0
BBX 5 22 0 -5
BITMAP
38
38
38
00
38
38
38
38
38
38
38
38
38
38
38
38
38
38
38
F8
F8
F0
ENDCHAR
STARTCHAR k
ENCODING 107
SWIDTH 556 0
DWIDTH 14 0
BBX 11 18 2 0
BITMAP
E000
E000
E000
E000
E1E0
E3C0
E780
EF00
EE00
FE00
FE00
FF00
F700
E780
E380
E3C0
E3C0
E1E0
ENDCHAR
STARTCHAR l
ENCODING 108
SWIDTH 277 0
DWIDTH 7 0
BBX 3 18 2 0
BITMAP
E0
E0
E0
E0
E0
E0
E0
E0
E0
E0
E0
E0
E0
E0
E0
E0
E0
E0
ENDCHAR
STARTCHAR m
ENCODING 109
SWIDTH 889 0
DWIDTH 21 0
BBX 17 14 2 0
BITMAP
EF1E00
FFBF00
FFFF80
F3E780
E1C380
E1C380
E1C380
E1C380
E1C380
E1C380
E1C380
E1C380
E1C380
E1C380
ENDCHAR
STARTCHAR n
ENCODING 110
SWIDTH 610 0
DWIDTH 16 0
BBX 12 14 2 0
BITMAP
E7C0
EFE0
FFF0
F0F0
E070
E070
E070
E070
E070
E070
E070
E070
E070
E070
ENDCHAR
STARTCHAR o
ENCODING 111
SWIDTH 610 0
DWIDTH 15 0
BBX 13 14 1 0
BITMAP
0F80
3FE0
7FF0
78F0
F078
E038
E038
E038
E038
F078
78F0
7FF0
3FE0
0F80
ENDCHAR
STARTCHAR p
ENCODING 112
SWIDTH 610 0
DWIDTH 15 0
BBX 12 19 2 -5
BITMAP
E780
FFC0
FFE0
F0E0
F0F0
E070
E070
E070
E070
E0F0
F0E0
FFE0
FFC0
E780
E000
E000
E000
E000
E000
ENDCHAR
STARTCHAR q
ENCODING 113
SWIDTH 610 0
DWIDTH 15 0
BBX 12 19 1 -5
BITMAP
1E70
3FF0
7FF0
70F0
F0F0
E070
E070
E070
E070
F0F0
70F0
7FF0
3FF0
1F70
0070
0070
0070
0070
0070
ENDCHAR
STARTCHAR r
ENCODING 114
SWIDTH 389 0
DWIDTH 9 0
BBX 7 14 2 0
BITMAP
E6
FE
FE
F0
E0
E0
E0
E0
E0
E0
E0
E0
E0
E0
ENDCHAR
STARTCHAR s
ENCODING 115
SWIDTH 556 0
DWIDTH 14 0
BBX 12 14 1 0
BITMAP
1F80
7FE0
FFE0
F0F0
E070
F800
7FC0
3FE0
01F0
E070
F070
7FF0
7FE0
1F80
ENDCHAR
STARTCHAR t
ENCODING 116
SWIDTH 333 0
DWIDTH 8 0
BBX 7 17 0 0
BITMAP
38
38
38
FE
FE
FE
38
38
38
38
38
38
38
38
3E
3E
1E
ENDCHAR
STARTCHAR u
ENCODING 117
SWIDTH 610 0
DWIDTH 16 0
BBX 12 14 2 0
BITMAP
E070
E070
E070
E070
E070
E070
E070
E070
E070
E070
F0F0
FFF0
7F70
3E70
ENDCHAR
STARTCHAR v
ENCODING 118
SWIDTH 556 0
DWIDTH 13 0
BBX 11 14 1 0
BITMAP
E0E0
E0E0
71C0
71C0
71C0
71C0
7B80
3B80
3B80
3B80
3F80
1F00
1F00
1F00
ENDCHAR
STARTCHAR w
ENCODING 119
SWIDTH 777 0
DWIDTH 19 0
BBX 18 13 0 0
BITMAP
F1E1C0
71E1C0
71E3C0
79F380
79F380
3BB380
3BB380
3B3F00
1F3F00
1F1F00
1F1E00
1F1E00
0E1E00
ENDCHAR
STARTCHAR x
ENCODING 120
SWIDTH 556 0
DWIDTH 14 0
BBX 14 14 0 0
BITMAP
F03C
7878
3870
1CE0
1CE0
0FC0
0780
0780
0FC0
1CE0
1CE0
3870
7878
F03C
ENDCHAR
STARTCHAR y
ENCODING 121
SWIDTH 556 0
DWIDTH 13 0
BBX 11 19 1 -5
BITMAP
E0E0
E0E0
F1E0
71C0
71C0
71C0
7BC0
3B80
3B80
3B80
3F80
1F00
1F00
1F00
0E00
0E00
7C00
7C00
7800
ENDCHAR
STARTCHAR z
ENCODING 122
SWIDTH 500 0
DWIDTH 12 0
BBX 11 14 1 0
BITMAP
FFE0
FFE0
FFE0
01E0
03C0
0780
0F00
1E00
3C00
7800
F000
FFE0
FFE0
FFE0
ENDCHAR
STARTCHAR braceleft
ENCODING 123
SWIDTH 389 0
DWIDTH 9 0
BBX 7 23 1 -5
BITMAP
0E
1E
3C
38
38
38
38
38
38
38
70
C0
70
38
38
38
38
38
38
38
3C
1E
0E
ENDCHAR
STARTCHAR bar
ENCODING 124
SWIDTH 279 0
DWIDTH 7 0
BBX 3 18 2 0
BITMAP
E0
E0
E0
E0
E0
E0
E0
E0
E0
E0
E0
E0
E0
E0
E0
E0
E0
E0
ENDCHAR
STARTCHAR braceright
ENCODING 125
SWIDTH 389 0
DWIDTH 9 0
BBX 7 23 1 -5
BITMAP
E0
F0
78
38
38
38
38
38
38
38
1C
06
1C
38
38
38
38
38
38
38
78
F0
E0
ENDCHAR
STARTCHAR asciitilde
ENCODING 126
SWIDTH 583 0
DWIDTH 14 0
BBX 14 6 0 4
BITMAP
3C1C
7E1C
7F38
73F8
E1F0
E0E0
ENDCHAR
ENDFONT
