STARTFONT 2.1
FONT -FontForge-Helvetica-Bold-R-Normal--16-150-75-75-P-93-ISO10646-1
SIZE 15 75 75
FONTBOUNDINGBOX 39 27 -16 -8
COMMENT "Generated by fontforge, http://fontforge.sourceforge.net"
COMMENT "(c) 1990-2006 Apple Computer Inc. (c) 1981 Linotype AG (c) 1990-91 Type Solutions Inc."
STARTPROPERTIES 40
FOUNDRY "FontForge"
FAMILY_NAME "Helvetica"
WEIGHT_NAME "Bold"
SLANT "R"
SETWIDTH_NAME "Normal"
ADD_STYLE_NAME ""
PIXEL_SIZE 16
POINT_SIZE 150
RESOLUTION_X 75
RESOLUTION_Y 75
SPACING "P"
AVERAGE_WIDTH 93
CHARSET_REGISTRY "ISO10646"
CHARSET_ENCODING "1"
FONTNAME_REGISTRY ""
CHARSET_COLLECTIONS "ISO8859-2 ISO8859-5 ISO8859-7 ISO8859-9 ISO8859-4 ISO10646-1"
FONT_NAME "Helvetica-Bold"
FACE_NAME "Helvetica‭ ‬עבה"
COPYRIGHT "(c) 1990-2006 Apple Computer Inc. (c) 1981 Linotype AG (c) 1990-91 Type Solutions Inc."
FONT_VERSION "10.0d4e1"
FONT_ASCENT 13
FONT_DESCENT 3
UNDERLINE_POSITION -2
UNDERLINE_THICKNESS 1
X_HEIGHT 8
CAP_HEIGHT 11
RAW_ASCENT 799
RAW_DESCENT 200
NORM_SPACE 4
RELATIVE_WEIGHT 70
RELATIVE_SETWIDTH 50
SUPERSCRIPT_X 0
SUPERSCRIPT_Y 7
SUPERSCRIPT_SIZE 10
SUBSCRIPT_X 0
SUBSCRIPT_Y 2
SUBSCRIPT_SIZE 10
FIGURE_WIDTH 9
AVG_LOWERCASE_WIDTH 92
AVG_UPPERCASE_WIDTH 119
ENDPROPERTIES
CHARS 95
STARTCHAR space
ENCODING 32
SWIDTH 277 0
DWIDTH 4 0
BBX 1 1 0 0
BITMAP
00
ENDCHAR
STARTCHAR exclam
ENCODING 33
SWIDTH 333 0
DWIDTH 5 0
BBX 2 12 2 0
BITMAP
C0
C0
C0
C0
C0
C0
C0
C0
C0
00
C0
C0
ENDCHAR
STARTCHAR quotedbl
ENCODING 34
SWIDTH 474 0
DWIDTH 8 0
BBX 5 5 1 7
BITMAP
D8
D8
D8
48
48
ENDCHAR
STARTCHAR numbersign
ENCODING 35
SWIDTH 556 0
DWIDTH 9 0
BBX 9 12 0 0
BITMAP
0D80
1B00
1B00
1B00
7F80
3600
3600
3600
FF00
6C00
6C00
6C00
ENDCHAR
STARTCHAR dollar
ENCODING 36
SWIDTH 556 0
DWIDTH 9 0
BBX 8 15 0 -2
BITMAP
08
3C
7E
CB
CB
E8
7C
1E
0B
CB
EB
7F
3E
08
08
ENDCHAR
STARTCHAR percent
ENCODING 37
SWIDTH 889 0
DWIDTH 14 0
BBX 12 12 1 0
BITMAP
7880
FD00
CD00
CD00
FE00
7A00
05E0
07F0
0F30
0B30
0BF0
11E0
ENDCHAR
STARTCHAR ampersand
ENCODING 38
SWIDTH 722 0
DWIDTH 11 0
BBX 10 12 1 0
BITMAP
3C00
7E00
6600
6600
7E00
3C00
7D80
CD80
CF00
C700
FF80
7DC0
ENDCHAR
STARTCHAR quotesingle
ENCODING 39
SWIDTH 237 0
DWIDTH 3 0
BBX 1 5 1 7
BITMAP
80
80
80
80
80
ENDCHAR
STARTCHAR parenleft
ENCODING 40
SWIDTH 333 0
DWIDTH 5 0
BBX 4 15 1 -3
BITMAP
30
60
60
40
C0
C0
C0
C0
C0
C0
C0
40
60
60
30
ENDCHAR
STARTCHAR parenright
ENCODING 41
SWIDTH 333 0
DWIDTH 5 0
BBX 4 12 0 0
BITMAP
C0
60
60
30
30
30
30
30
30
60
60
C0
ENDCHAR
STARTCHAR asterisk
ENCODING 42
SWIDTH 389 0
DWIDTH 6 0
BBX 5 5 0 7
BITMAP
20
A8
70
50
90
ENDCHAR
STARTCHAR plus
ENCODING 43
SWIDTH 583 0
DWIDTH 9 0
BBX 8 9 1 0
BITMAP
18
18
18
FF
FF
18
18
18
18
ENDCHAR
STARTCHAR comma
ENCODING 44
SWIDTH 277 0
DWIDTH 4 0
BBX 2 5 1 -3
BITMAP
C0
C0
40
40
80
ENDCHAR
STARTCHAR hyphen
ENCODING 45
SWIDTH 333 0
DWIDTH 5 0
BBX 4 2 1 3
BITMAP
F0
F0
ENDCHAR
STARTCHAR period
ENCODING 46
SWIDTH 277 0
DWIDTH 4 0
BBX 2 2 1 0
BITMAP
C0
C0
ENDCHAR
STARTCHAR slash
ENCODING 47
SWIDTH 277 0
DWIDTH 4 0
BBX 7 12 -1 0
BITMAP
0E
0C
0C
18
18
18
30
30
30
60
60
E0
ENDCHAR
STARTCHAR zero
ENCODING 48
SWIDTH 556 0
DWIDTH 9 0
BBX 8 12 0 0
BITMAP
3C
7E
E7
C3
C3
C3
C3
C3
C3
E7
7E
3C
ENDCHAR
STARTCHAR one
ENCODING 49
SWIDTH 556 0
DWIDTH 9 0
BBX 5 12 1 0
BITMAP
18
38
F8
F8
18
18
18
18
18
18
18
18
ENDCHAR
STARTCHAR two
ENCODING 50
SWIDTH 556 0
DWIDTH 9 0
BBX 8 12 0 0
BITMAP
3C
7E
C3
C3
03
07
0E
3C
70
E0
FF
FF
ENDCHAR
STARTCHAR three
ENCODING 51
SWIDTH 556 0
DWIDTH 9 0
BBX 8 12 0 0
BITMAP
3C
7F
E3
C3
03
1E
1F
03
C3
E3
7E
3C
ENDCHAR
STARTCHAR four
ENCODING 52
SWIDTH 556 0
DWIDTH 9 0
BBX 8 12 0 0
BITMAP
06
0E
1E
1E
36
76
66
C6
FF
FF
06
06
ENDCHAR
STARTCHAR five
ENCODING 53
SWIDTH 556 0
DWIDTH 9 0
BBX 8 12 0 0
BITMAP
7F
7F
60
C0
FC
FE
E7
03
03
C7
FE
3C
ENDCHAR
STARTCHAR six
ENCODING 54
SWIDTH 556 0
DWIDTH 9 0
BBX 8 12 0 0
BITMAP
3C
7F
63
C0
DC
FE
E7
C3
C3
67
7E
3C
ENDCHAR
STARTCHAR seven
ENCODING 55
SWIDTH 556 0
DWIDTH 9 0
BBX 8 12 0 0
BITMAP
FF
FF
06
06
0C
0C
18
18
18
30
30
30
ENDCHAR
STARTCHAR eight
ENCODING 56
SWIDTH 556 0
DWIDTH 9 0
BBX 8 12 0 0
BITMAP
3C
7E
C3
C3
C3
7E
7E
C3
C3
C3
7E
3C
ENDCHAR
STARTCHAR nine
ENCODING 57
SWIDTH 556 0
DWIDTH 9 0
BBX 8 12 0 0
BITMAP
3C
7E
E7
C3
C3
C7
7F
3B
03
C6
7E
3C
ENDCHAR
STARTCHAR colon
ENCODING 58
SWIDTH 333 0
DWIDTH 5 0
BBX 2 8 2 0
BITMAP
C0
C0
00
00
00
00
C0
C0
ENDCHAR
STARTCHAR semicolon
ENCODING 59
SWIDTH 333 0
DWIDTH 5 0
BBX 2 11 2 -3
BITMAP
C0
C0
00
00
00
00
C0
C0
40
40
80
ENDCHAR
STARTCHAR less
ENCODING 60
SWIDTH 583 0
DWIDTH 9 0
BBX 9 9 0 0
BITMAP
0080
0380
1F80
FC00
F000
FC00
1F80
0380
0080
ENDCHAR
STARTCHAR equal
ENCODING 61
SWIDTH 583 0
DWIDTH 9 0
BBX 8 6 1 1
BITMAP
FF
FF
00
00
FF
FF
ENDCHAR
STARTCHAR greater
ENCODING 62
SWIDTH 583 0
DWIDTH 9 0
BBX 9 9 0 0
BITMAP
8000
E000
FC00
1F80
0380
1F80
FC00
E000
8000
ENDCHAR
STARTCHAR question
ENCODING 63
SWIDTH 610 0
DWIDTH 10 0
BBX 8 12 1 0
BITMAP
3C
7E
E3
C3
03
06
0C
18
18
00
18
18
ENDCHAR
STARTCHAR at
ENCODING 64
SWIDTH 975 0
DWIDTH 16 0
BBX 13 12 2 0
BITMAP
0FC0
3030
6010
4748
8CC8
98C8
9888
9990
4EE0
6010
3030
0FC0
ENDCHAR
STARTCHAR A
ENCODING 65
SWIDTH 722 0
DWIDTH 11 0
BBX 9 12 1 0
BITMAP
1C00
1C00
1C00
3600
3600
3600
6300
7F00
7F00
6300
C180
C180
ENDCHAR
STARTCHAR B
ENCODING 66
SWIDTH 722 0
DWIDTH 12 0
BBX 10 12 1 0
BITMAP
FF00
FF80
C0C0
C0C0
C0C0
FF80
FF80
C0C0
C0C0
C0C0
FF80
FF00
ENDCHAR
STARTCHAR C
ENCODING 67
SWIDTH 722 0
DWIDTH 12 0
BBX 10 12 1 0
BITMAP
1F00
7F80
61C0
E0C0
C000
C000
C000
C000
E0C0
61C0
7F80
1F00
ENDCHAR
STARTCHAR D
ENCODING 68
SWIDTH 722 0
DWIDTH 12 0
BBX 10 12 1 0
BITMAP
FE00
FF80
C180
C0C0
C0C0
C0C0
C0C0
C0C0
C0C0
C180
FF80
FE00
ENDCHAR
STARTCHAR E
ENCODING 69
SWIDTH 666 0
DWIDTH 11 0
BBX 8 11 1 0
BITMAP
FF
FF
C0
C0
FF
FF
C0
C0
C0
FF
FF
ENDCHAR
STARTCHAR F
ENCODING 70
SWIDTH 610 0
DWIDTH 9 0
BBX 8 12 1 0
BITMAP
FF
FF
C0
C0
C0
FE
FE
C0
C0
C0
C0
C0
ENDCHAR
STARTCHAR G
ENCODING 71
SWIDTH 777 0
DWIDTH 13 0
BBX 11 12 1 0
BITMAP
1F00
3FC0
70E0
E060
C000
C000
C3E0
C3E0
E060
70E0
3FE0
1F20
ENDCHAR
STARTCHAR H
ENCODING 72
SWIDTH 722 0
DWIDTH 11 0
BBX 9 12 1 0
BITMAP
C180
C180
C180
C180
C180
FF80
FF80
C180
C180
C180
C180
C180
ENDCHAR
STARTCHAR I
ENCODING 73
SWIDTH 277 0
DWIDTH 4 0
BBX 2 12 1 0
BITMAP
C0
C0
C0
C0
C0
C0
C0
C0
C0
C0
C0
C0
ENDCHAR
STARTCHAR J
ENCODING 74
SWIDTH 556 0
DWIDTH 8 0
BBX 7 12 0 0
BITMAP
06
06
06
06
06
06
06
C6
C6
C6
7E
7C
ENDCHAR
STARTCHAR K
ENCODING 75
SWIDTH 722 0
DWIDTH 11 0
BBX 10 12 1 0
BITMAP
C180
C300
C600
CC00
D800
F800
EC00
CC00
C600
C300
C300
C1C0
ENDCHAR
STARTCHAR L
ENCODING 76
SWIDTH 610 0
DWIDTH 9 0
BBX 8 12 1 0
BITMAP
C0
C0
C0
C0
C0
C0
C0
C0
C0
C0
FF
FF
ENDCHAR
STARTCHAR M
ENCODING 77
SWIDTH 833 0
DWIDTH 13 0
BBX 11 12 1 0
BITMAP
E0E0
E0E0
F1E0
F1E0
D160
DB60
DB60
DB60
DB60
CE60
CE60
CE60
ENDCHAR
STARTCHAR N
ENCODING 78
SWIDTH 722 0
DWIDTH 11 0
BBX 9 12 1 0
BITMAP
E180
E180
F180
F180
D980
D980
CD80
CD80
C780
C780
C380
C180
ENDCHAR
STARTCHAR O
ENCODING 79
SWIDTH 777 0
DWIDTH 13 0
BBX 11 12 1 0
BITMAP
1F00
3F80
71C0
E0E0
C060
C060
C060
C060
E0E0
71C0
3F80
1F00
ENDCHAR
STARTCHAR P
ENCODING 80
SWIDTH 666 0
DWIDTH 11 0
BBX 9 12 1 0
BITMAP
FE00
FF00
C380
C180
C180
C380
FF00
FE00
C000
C000
C000
C000
ENDCHAR
STARTCHAR Q
ENCODING 81
SWIDTH 777 0
DWIDTH 13 0
BBX 11 13 1 -1
BITMAP
1F00
3F80
71C0
E0E0
C060
C060
C060
C260
E3E0
71C0
3FC0
1F60
0040
ENDCHAR
STARTCHAR R
ENCODING 82
SWIDTH 722 0
DWIDTH 12 0
BBX 10 12 1 0
BITMAP
FF00
FF80
C0C0
C0C0
C0C0
FF80
FF80
C0C0
C0C0
C0C0
C0C0
C0C0
ENDCHAR
STARTCHAR S
ENCODING 83
SWIDTH 666 0
DWIDTH 12 0
BBX 10 12 1 0
BITMAP
3F00
7F80
E1C0
C0C0
E000
7F00
3F80
01C0
C0C0
E1C0
7F80
3F00
ENDCHAR
STARTCHAR T
ENCODING 84
SWIDTH 610 0
DWIDTH 9 0
BBX 8 12 1 0
BITMAP
FF
FF
18
18
18
18
18
18
18
18
18
18
ENDCHAR
STARTCHAR U
ENCODING 85
SWIDTH 722 0
DWIDTH 11 0
BBX 9 12 1 0
BITMAP
C180
C180
C180
C180
C180
C180
C180
C180
C180
E380
7F00
3E00
ENDCHAR
STARTCHAR V
ENCODING 86
SWIDTH 666 0
DWIDTH 11 0
BBX 9 12 1 0
BITMAP
C180
C180
6300
6300
6300
7700
3600
3600
3600
1C00
1C00
1C00
ENDCHAR
STARTCHAR W
ENCODING 87
SWIDTH 943 0
DWIDTH 15 0
BBX 13 12 1 0
BITMAP
C718
C718
C718
C518
6DB0
6DB0
6DB0
6CB0
68B0
38E0
38E0
38E0
ENDCHAR
STARTCHAR X
ENCODING 88
SWIDTH 666 0
DWIDTH 12 0
BBX 11 12 1 0
BITMAP
E0E0
71C0
3180
1B00
1F00
0E00
0E00
1B00
1B00
3180
71C0
E0E0
ENDCHAR
STARTCHAR Y
ENCODING 89
SWIDTH 666 0
DWIDTH 11 0
BBX 8 12 2 0
BITMAP
C3
C3
66
66
3C
3C
3C
18
18
18
18
18
ENDCHAR
STARTCHAR Z
ENCODING 90
SWIDTH 610 0
DWIDTH 10 0
BBX 9 12 1 0
BITMAP
FF80
FF80
0380
0700
0600
0C00
1800
3000
7000
E000
FF80
FF80
ENDCHAR
STARTCHAR bracketleft
ENCODING 91
SWIDTH 333 0
DWIDTH 5 0
BBX 4 12 1 0
BITMAP
F0
F0
C0
C0
C0
C0
C0
C0
C0
C0
F0
F0
ENDCHAR
STARTCHAR backslash
ENCODING 92
SWIDTH 277 0
DWIDTH 4 0
BBX 7 12 -1 0
BITMAP
C0
C0
60
60
70
30
30
18
18
1C
0C
0E
ENDCHAR
STARTCHAR bracketright
ENCODING 93
SWIDTH 333 0
DWIDTH 5 0
BBX 4 12 0 0
BITMAP
F0
F0
30
30
30
30
30
30
30
30
F0
F0
ENDCHAR
STARTCHAR asciicircum
ENCODING 94
SWIDTH 583 0
DWIDTH 9 0
BBX 9 7 0 5
BITMAP
1C00
1C00
3E00
3600
3600
6300
E380
ENDCHAR
STARTCHAR underscore
ENCODING 95
SWIDTH 556 0
DWIDTH 9 0
BBX 9 1 0 -2
BITMAP
FF80
ENDCHAR
STARTCHAR grave
ENCODING 96
SWIDTH 333 0
DWIDTH 5 0
BBX 4 2 0 10
BITMAP
E0
30
ENDCHAR
STARTCHAR a
ENCODING 97
SWIDTH 556 0
DWIDTH 10 0
BBX 8 9 1 0
BITMAP
3C
FF
C3
07
7B
C3
C7
FF
7B
ENDCHAR
STARTCHAR b
ENCODING 98
SWIDTH 610 0
DWIDTH 10 0
BBX 8 12 1 0
BITMAP
C0
C0
C0
DC
FE
E7
C3
C3
C3
E7
FE
DC
ENDCHAR
STARTCHAR c
ENCODING 99
SWIDTH 556 0
DWIDTH 10 0
BBX 8 9 1 0
BITMAP
3C
7F
E3
C0
C0
C0
E3
7F
3C
ENDCHAR
STARTCHAR d
ENCODING 100
SWIDTH 610 0
DWIDTH 10 0
BBX 8 12 1 0
BITMAP
03
03
03
3B
7F
E7
C3
C3
C3
E7
7F
3B
ENDCHAR
STARTCHAR e
ENCODING 101
SWIDTH 556 0
DWIDTH 10 0
BBX 8 9 1 0
BITMAP
3C
7E
E7
C3
FF
C0
E3
7E
3C
ENDCHAR
STARTCHAR f
ENCODING 102
SWIDTH 333 0
DWIDTH 4 0
BBX 4 12 0 0
BITMAP
30
70
60
F0
F0
60
60
60
60
60
60
60
ENDCHAR
STARTCHAR g
ENCODING 103
SWIDTH 610 0
DWIDTH 10 0
BBX 8 12 1 -3
BITMAP
3B
7F
E7
C3
C3
C3
E7
7F
3B
C3
FE
3C
ENDCHAR
STARTCHAR h
ENCODING 104
SWIDTH 610 0
DWIDTH 10 0
BBX 8 12 1 0
BITMAP
C0
C0
C0
DE
FF
E3
C3
C3
C3
C3
C3
C3
ENDCHAR
STARTCHAR i
ENCODING 105
SWIDTH 277 0
DWIDTH 4 0
BBX 2 12 1 0
BITMAP
C0
C0
00
C0
C0
C0
C0
C0
C0
C0
C0
C0
ENDCHAR
STARTCHAR j
ENCODING 106
SWIDTH 277 0
DWIDTH 4 0
BBX 3 15 0 -3
BITMAP
60
60
00
60
60
60
60
60
60
60
60
60
60
E0
C0
ENDCHAR
STARTCHAR k
ENCODING 107
SWIDTH 556 0
DWIDTH 9 0
BBX 7 12 1 0
BITMAP
C0
C0
C0
CE
DC
D8
F0
F8
F8
DC
CC
CE
ENDCHAR
STARTCHAR l
ENCODING 108
SWIDTH 277 0
DWIDTH 4 0
BBX 2 12 1 0
BITMAP
C0
C0
C0
C0
C0
C0
C0
C0
C0
C0
C0
C0
ENDCHAR
STARTCHAR m
ENCODING 109
SWIDTH 889 0
DWIDTH 14 0
BBX 12 9 1 0
BITMAP
DCE0
FFF0
E730
C630
C630
C630
C630
C630
C630
ENDCHAR
STARTCHAR n
ENCODING 110
SWIDTH 610 0
DWIDTH 10 0
BBX 8 9 1 0
BITMAP
DE
FF
E3
C3
C3
C3
C3
C3
C3
ENDCHAR
STARTCHAR o
ENCODING 111
SWIDTH 610 0
DWIDTH 11 0
BBX 9 9 1 0
BITMAP
3E00
7F00
E380
C180
C180
C180
E380
7F00
3E00
ENDCHAR
STARTCHAR p
ENCODING 112
SWIDTH 610 0
DWIDTH 10 0
BBX 8 12 1 -3
BITMAP
DC
FE
E7
C3
C3
C3
E7
FE
DC
C0
C0
C0
ENDCHAR
STARTCHAR q
ENCODING 113
SWIDTH 610 0
DWIDTH 10 0
BBX 8 12 1 -3
BITMAP
3B
7F
E7
C3
C3
C3
E7
7F
3B
03
03
03
ENDCHAR
STARTCHAR r
ENCODING 114
SWIDTH 389 0
DWIDTH 6 0
BBX 5 9 1 0
BITMAP
D8
F8
E0
C0
C0
C0
C0
C0
C0
ENDCHAR
STARTCHAR s
ENCODING 115
SWIDTH 556 0
DWIDTH 10 0
BBX 8 9 1 0
BITMAP
3C
FF
C3
F0
7E
0F
C3
FF
7E
ENDCHAR
STARTCHAR t
ENCODING 116
SWIDTH 333 0
DWIDTH 5 0
BBX 4 11 0 0
BITMAP
60
60
F0
F0
60
60
60
60
60
70
70
ENDCHAR
STARTCHAR u
ENCODING 117
SWIDTH 610 0
DWIDTH 10 0
BBX 8 9 1 0
BITMAP
C3
C3
C3
C3
C3
C3
C7
FF
7B
ENDCHAR
STARTCHAR v
ENCODING 118
SWIDTH 556 0
DWIDTH 9 0
BBX 7 9 1 0
BITMAP
C6
C6
C6
6C
6C
6C
6C
38
38
ENDCHAR
STARTCHAR w
ENCODING 119
SWIDTH 777 0
DWIDTH 12 0
BBX 12 9 0 0
BITMAP
E630
6730
6770
6F60
6D60
3D60
39C0
39C0
39C0
ENDCHAR
STARTCHAR x
ENCODING 120
SWIDTH 556 0
DWIDTH 9 0
BBX 9 9 0 0
BITMAP
E380
7700
3600
1C00
1C00
1C00
3600
7700
E380
ENDCHAR
STARTCHAR y
ENCODING 121
SWIDTH 556 0
DWIDTH 9 0
BBX 7 12 1 -3
BITMAP
C6
C6
C6
6C
6C
6C
6C
38
38
18
F0
E0
ENDCHAR
STARTCHAR z
ENCODING 122
SWIDTH 500 0
DWIDTH 7 0
BBX 7 9 0 0
BITMAP
FE
FE
0E
1C
38
70
E0
FE
FE
ENDCHAR
STARTCHAR braceleft
ENCODING 123
SWIDTH 389 0
DWIDTH 6 0
BBX 5 15 0 -3
BITMAP
18
30
30
30
30
30
70
C0
70
30
30
30
30
30
18
ENDCHAR
STARTCHAR bar
ENCODING 124
SWIDTH 279 0
DWIDTH 4 0
BBX 2 12 1 0
BITMAP
C0
C0
C0
C0
C0
C0
C0
C0
C0
C0
C0
C0
ENDCHAR
STARTCHAR braceright
ENCODING 125
SWIDTH 389 0
DWIDTH 6 0
BBX 5 15 1 -3
BITMAP
C0
60
60
60
60
60
70
18
70
60
60
60
60
60
C0
ENDCHAR
STARTCHAR asciitilde
ENCODING 126
SWIDTH 583 0
DWIDTH 10 0
BBX 10 4 0 2
BITMAP
30C0
7CC0
CF80
C300
ENDCHAR
ENDFONT
